<svg data-name="Grupo 685" xmlns="http://www.w3.org/2000/svg" width="383.613" height="179.718" viewBox="0 0 383.613 179.718"><path data-name="Trazado 352" d="M107.858 95.774c1.348-7.277 1.75-11.856 1.617-14.958a6.414 6.414 0 0 1 5.658-7.137q2.022-.2 3.64-.4h-.135c4.043-.81 7.816 1.884 7.546 5.117-.134.81-.538 2.424-.942 4.314s-1.077 4.04-1.48 6.2c2.693-4.852 6.466-10.646 11.314-13.88a35.868 35.868 0 0 1 7.68-3.637 4.63 4.63 0 0 1 6.065 5.66c-1.346 3.64-5.928 5.928-10.374 7.005-5.66 1.483-13.07 7.41-16.71 20.616-2.018 7.142-5.12 24.928-5.792 33.818-.4 3.908-4.176 7.008-8.893 6.874h-.672c-4.043 0-7.68-2.965-6.737-6.332a48.252 48.252 0 0 0 1.617-6.737z" fill="#ff9016"/><path data-name="Trazado 353" d="M158.115 113.833c-1.483 6.872-2.022 9.97-2.022 12.932 0 5.122 2.157 9.57 8.488 9.57 2.56 0 10.24-1.08 16.035-10.377 3.1-5.39 6.2-17.785 8.22-28.16a125.532 125.532 0 0 0 2.29-16.573 8.837 8.837 0 0 1 7.275-8.22c.54-.133 1.348-.133 1.752-.268h-.132a4.14 4.14 0 0 1 1.48-.27c3.638-.538 7.412 2.29 6.738 5.12-1.887 6.737-3.907 15.63-6.063 28.027-3.37 18.73-4.582 27.754-4.582 32.874v1.08c.134 3.5-3.5 6.332-7.68 6.332-4.58 0-8.355-3.233-8.083-7.007a60.352 60.352 0 0 1 .673-7.273c-2.02 3.907-4.85 8.352-8.623 11.047-6.062 4.04-13.88 4.716-15.9 4.716-9.564 0-18.053-4.716-18.053-14.552a56.932 56.932 0 0 1 1.077-8.757l6.735-35.84a57.04 57.04 0 0 0 .94-6.465c.272-3.505 2.023-7.413 6.47-8.22.4-.135 1.213-.135 1.617-.27a5.706 5.706 0 0 1 1.616-.27c4.043-.675 7.817 2.56 7.143 5.928-1.618 6.2-2.157 8.893-3.5 15.09z" fill="#ff9016"/><path data-name="Trazado 354" d="M249.33 79.47c-22.634 0-27.08 29.24-27.08 39.885 0 3.367.4 8.083 2.29 11.048 2.155 3.5 5.12 5.387 8.488 5.387 5.254 0 10.777-4.58 14.417-9.564 4.58-7.275 7-18.19 12.126-44.057h.81a24.74 24.74 0 0 0-11.05-2.7m15.36 55.245c-3.5 19.266-6.06 34.088-25.87 41.363h.135c-6.737 2.56-15.227 3.64-22.772 3.64a52.693 52.693 0 0 1-10.106-.81c-3.366-.808-5.52-4.176-4.04-7.005 1.615-3.235 5.658-4.583 9.566-3.235a29.368 29.368 0 0 0 8.62 1.208c7.144 0 14.42-2.158 19.673-7.815 5.39-5.12 8.085-16.572 11.184-33.144-4.714 7.68-12.4 18.322-23.31 18.322-8.352 0-14.686-3.64-17.92-8.892h.135a26.356 26.356 0 0 1-3.77-14.282c0-21.694 15.493-53.222 45.136-53.222a33.855 33.855 0 0 1 14.688 3.233c.4.134.134.134.538.27.136 0 .4-.27.54-.27.4-.135 1.347-.538 1.347-.538 4.04-1.484 7.947 1.75 7 5.255-1.213 4.176-2.425 9.564-4.447 21.018z" fill="#ff9016"/><path data-name="Trazado 355" d="M301.607 86.072c-5.39 6.2-8.22 19.676-9.3 27.352 8.354-.807 17.38-6.062 24.39-12.663a18.83 18.83 0 0 0 6.062-13.472c0-6.065-3.64-8.9-7.683-8.9-2.424 0-7.544.944-13.337 7.68zm4.987 52.82a32.183 32.183 0 0 0 12.664-2.695c2.56-1.214 5.525.674 4.852 3.1a10.61 10.61 0 0 1-7.682 7.14 63.463 63.463 0 0 1-12.935 1.347c-22.5-.673-28.026-13.07-28.3-29.914 0-14.685 7.142-26.677 11.59-32.2a40.656 40.656 0 0 1 31.257-15.226c13.61 0 20.482 7.006 20.482 16.17 0 4.043-1.754 9.3-4.582 13.61-3.37 4.986-9.027 8.758-13.474 11.048-9.027 4.445-18.055 4.85-28.564 5.254a24.876 24.876 0 0 0-.4 5.12c0 6.6 2.02 17.382 15.09 17.246" fill="#ff9016"/><path data-name="Trazado 356" d="M342.437 95.774c1.346-7.277 1.75-11.856 1.616-14.958a6.412 6.412 0 0 1 5.66-7.137q2.02-.2 3.636-.4h-.135c4.04-.81 7.814 1.884 7.545 5.117-.134.81-.54 2.424-.942 4.314s-1.077 4.04-1.483 6.2c2.694-4.852 6.466-10.646 11.317-13.88a35.938 35.938 0 0 1 7.68-3.637 4.63 4.63 0 0 1 6.064 5.66c-1.35 3.64-5.93 5.928-10.376 7.005-5.656 1.483-13.07 7.41-16.707 20.616-2.022 7.142-5.12 24.928-5.792 33.818-.405 3.908-4.176 7.008-8.893 6.874h-.676c-4.04 0-7.677-2.965-6.734-6.332a48.768 48.768 0 0 0 1.618-6.737z" fill="#ff9016"/><path data-name="Trazado 357" d="M82.026 74.907a41.768 41.768 0 0 1-13.475 1.257c-1.146-.066-2.29-.283-3.518.756-16.848 19.176-41.64 37.07-56.553 42.22 0 0-9.115 4.34-8.446 6.323 0 0 43.268-6.044 82.248-49.035.738-.984 1.166-1.854-.257-1.522" fill="#ff9016"/><path data-name="Trazado 358" d="M46.337 68.886c1.75-9.19 3.208-16.044 4.375-19.836 1.02-3.647-2.188-7.44-6.71-7.293h-3.21a8.654 8.654 0 0 0-8.75 8.022c-.438 3.645-1.167 9.186-2.77 17.21l-8.526 44.846a155.795 155.795 0 0 0 20.56-15.742c1.687-9.2 3.4-18.433 5.03-27.21" fill="#ff9016"/><path data-name="Trazado 359" d="M18.478 123.287c-1.458 6.417-2.332 10.5-3.354 13.71-1.02 3.646 2.334 7.294 6.854 7.147h2.63c5.25 0 9.335-3.353 9.772-7.73.438-3.646 1.167-8.9 2.625-16.48.348-1.963.7-3.952 1.06-5.953a139.89 139.89 0 0 1-19.182 7.495c-.122.63-.242 1.246-.4 1.812" fill="#ff9016"/><path data-name="Trazado 360" d="M94.588 140.62c-10.14-8.39-25.12-34.435-27.98-44.885a140.1 140.1 0 0 1-14.287 10.35c1.6 3.864 7.34 16.972 15.966 27.827 10.24 12.887 20.3 12.18 24.105 11.886s3.965-3.412 2.2-5.177" fill="#ff9016"/><path data-name="Trazado 361" d="M132.828 42.22c-1.172-1.152 12.345-2.405 14.956-.617s-10.722 4.78-14.956.618" fill="#ff9016"/><path data-name="Trazado 362" d="M51.07 16.484c-.22-1.63 11.222 5.676 12.185 8.692s-11.4-2.808-12.186-8.692" fill="#ff9016"/><path data-name="Trazado 363" d="M78.177.104c.878-1.39 4.968 11.555 3.775 14.486S75.008 5.125 78.177.104" fill="#ff9016"/><path data-name="Trazado 364" d="M108.16.186c1.383-.887-.4 12.57-2.724 14.72S103.16 3.388 108.16.185" fill="#ff9016"/><path data-name="Trazado 365" d="M137.038 13.892c1.643.056-7.47 10.117-10.6 10.566s4.67-10.77 10.6-10.566" fill="#ff9016"/><path data-name="Trazado 366" d="M97.927 19.19c-24.3-1.264-35.987 10.653-38.24 21.9-2.248 11.232 8.8 22.45 22.383 24.3-1.862 2.887-8.813 6.1-10.86 6.348s-4.1 1.19-3.58 1.84c4.822 3.053 24.832-3.34 29.677-5.388 5.71-2.412 6.512-9.72-1.257-4.743a64.22 64.22 0 0 1-17.154 7.322c3.387-.424 7.91-5.934 8.16-6.9s-1.884-2.3-1.884-2.3C74.502 65.125 56.016 49.3 67.39 34.37c10.042-13.18 30.305-13.53 41.84-9.834 11.576 3.71 21.833 12.26 15.062 21.34a19.75 19.75 0 0 1-14.644 7.95c-.336.084-1.223.606-1.464.626-1.163.1-1.213 1.7-1.332 2.52-.09.63.58 1.122 1.452 1.274 8.164-.258 17.242-6.1 20.506-13.6 4-9.19-6.506-24.187-30.882-25.456" fill="#ff9016"/></svg>